{
	"asset":{
		"generator":"Khronos glTF Blender I/O v4.0.44",
		"version":"2.0"
	},
	"extensionsUsed":[
		"KHR_materials_sheen"
	],
	"scene":0,
	"scenes":[
		{
			"name":"Scene",
			"nodes":[
				0,
				1,
				2
			]
		}
	],
	"nodes":[
		{
			"mesh":0,
			"name":"Plano",
			"rotation":[
				0.5007060170173645,
				-0.4992918074131012,
				0.5010557770729065,
				0.4989432394504547
			]
		},
		{
			"mesh":1,
			"name":"Plano.001",
			"rotation":[
				0.501176118850708,
				-0.5008981227874756,
				0.4988221228122711,
				0.4990992248058319
			],
			"translation":[
				0.013678771443665028,
				0,
				0
			]
		},
		{
			"mesh":2,
			"name":"Plano.002",
			"rotation":[
				0,
				0,
				-0.7069669365882874,
				0.7072466015815735
			],
			"scale":[
				1.2629716396331787,
				1,
				1
			],
			"translation":[
				-0.003798026591539383,
				0,
				0
			]
		}
	],
	"materials":[
		{
			"doubleSided":true,
			"name":"Material.003",
			"pbrMetallicRoughness":{
				"baseColorTexture":{
					"index":0
				},
				"metallicFactor":0,
				"roughnessFactor":0.6772727370262146
			}
		},
		{
			"doubleSided":true,
			"extensions":{
				"KHR_materials_sheen":{
					"sheenColorFactor":[
						1.0,
						1.0,
						1.0
					]
				}
			},
			"name":"Material.002",
			"pbrMetallicRoughness":{
				"baseColorTexture":{
					"index":1
				},
				"metallicFactor":0,
				"roughnessFactor":0.5
			}
		}
	],
	"meshes":[
		{
			"name":"Plano.002",
			"primitives":[
				{
					"attributes":{
						"POSITION":0,
						"NORMAL":1,
						"TEXCOORD_0":2
					},
					"indices":3,
					"material":0
				}
			]
		},
		{
			"name":"Plano.003",
			"primitives":[
				{
					"attributes":{
						"POSITION":4,
						"NORMAL":5,
						"TEXCOORD_0":6
					},
					"indices":7,
					"material":1
				}
			]
		},
		{
			"name":"Plano.004",
			"primitives":[
				{
					"attributes":{
						"POSITION":8,
						"NORMAL":9,
						"TEXCOORD_0":10
					},
					"indices":11,
					"material":0
				}
			]
		}
	],
	"textures":[
		{
			"sampler":0,
			"source":0
		},
		{
			"sampler":0,
			"source":1
		}
	],
	"images":[
		{
			"mimeType":"image/jpeg",
			"name":"suelos-madera-marron_53876-90802",
			"uri":"suelos-madera-marron_53876-90802.jpg"
		},
		{
			"mimeType":"image/jpeg",
			"name":"800px-Caspar_David_Friedrich_-_Wanderer_above_the_sea_of_fog",
			"uri":"800px-Caspar_David_Friedrich_-_Wanderer_above_the_sea_of_fog.jpg"
		}
	],
	"accessors":[
		{
			"bufferView":0,
			"componentType":5126,
			"count":56,
			"max":[
				1.0000001192092896,
				0.0009233392775058746,
				1.2618006467819214
			],
			"min":[
				-1.0000001192092896,
				-0.051917508244514465,
				-1.2617723941802979
			],
			"type":"VEC3"
		},
		{
			"bufferView":1,
			"componentType":5126,
			"count":56,
			"type":"VEC3"
		},
		{
			"bufferView":2,
			"componentType":5126,
			"count":56,
			"type":"VEC2"
		},
		{
			"bufferView":3,
			"componentType":5123,
			"count":192,
			"type":"SCALAR"
		},
		{
			"bufferView":4,
			"componentType":5126,
			"count":20,
			"max":[
				0.9961049556732178,
				6.033727117937815e-07,
				1.2645089626312256
			],
			"min":[
				-0.9960716962814331,
				-5.782525818176509e-07,
				-1.256479024887085
			],
			"type":"VEC3"
		},
		{
			"bufferView":5,
			"componentType":5126,
			"count":20,
			"type":"VEC3"
		},
		{
			"bufferView":6,
			"componentType":5126,
			"count":20,
			"type":"VEC2"
		},
		{
			"bufferView":7,
			"componentType":5123,
			"count":36,
			"type":"SCALAR"
		},
		{
			"bufferView":8,
			"componentType":5126,
			"count":4,
			"max":[
				1.0000019073486328,
				0.006240057293325663,
				1
			],
			"min":[
				-0.9999980330467224,
				0.006240057293325663,
				-1
			],
			"type":"VEC3"
		},
		{
			"bufferView":9,
			"componentType":5126,
			"count":4,
			"type":"VEC3"
		},
		{
			"bufferView":10,
			"componentType":5126,
			"count":4,
			"type":"VEC2"
		},
		{
			"bufferView":11,
			"componentType":5123,
			"count":6,
			"type":"SCALAR"
		}
	],
	"bufferViews":[
		{
			"buffer":0,
			"byteLength":672,
			"byteOffset":0,
			"target":34962
		},
		{
			"buffer":0,
			"byteLength":672,
			"byteOffset":672,
			"target":34962
		},
		{
			"buffer":0,
			"byteLength":448,
			"byteOffset":1344,
			"target":34962
		},
		{
			"buffer":0,
			"byteLength":384,
			"byteOffset":1792,
			"target":34963
		},
		{
			"buffer":0,
			"byteLength":240,
			"byteOffset":2176,
			"target":34962
		},
		{
			"buffer":0,
			"byteLength":240,
			"byteOffset":2416,
			"target":34962
		},
		{
			"buffer":0,
			"byteLength":160,
			"byteOffset":2656,
			"target":34962
		},
		{
			"buffer":0,
			"byteLength":72,
			"byteOffset":2816,
			"target":34963
		},
		{
			"buffer":0,
			"byteLength":48,
			"byteOffset":2888,
			"target":34962
		},
		{
			"buffer":0,
			"byteLength":48,
			"byteOffset":2936,
			"target":34962
		},
		{
			"buffer":0,
			"byteLength":32,
			"byteOffset":2984,
			"target":34962
		},
		{
			"buffer":0,
			"byteLength":12,
			"byteOffset":3016,
			"target":34963
		}
	],
	"samplers":[
		{
			"magFilter":9729,
			"minFilter":9987
		}
	],
	"buffers":[
		{
			"byteLength":3028,
			"uri":"ELCUADROPALMUSEO2.bin"
		}
	]
}
