{
  "asset": {
    "version": "2.0",
    "generator": "3dpea GLTFExporter"
  },
  "scenes": [
    {
      "name": "AuxScene",
      "nodes": [
        8
      ]
    }
  ],
  "scene": 0,
  "nodes": [
    {
      "matrix": [
        1.2293972969055176,
        0,
        0,
        0,
        0,
        1.2293972969055176,
        0,
        0,
        0,
        0,
        1.2293972969055176,
        0,
        -0.0015209941193461418,
        0.5646407604217529,
        0.8862612247467041,
        1
      ],
      "name": "Cube006",
      "extras": {
        "name": "Cube.006"
      },
      "mesh": 0
    },
    {
      "matrix": [
        0.259207284495619,
        -0.10926597798463743,
        -0.03371999911498508,
        0,
        -0.03724025505934331,
        -0.15965017004537996,
        0.23106158446510527,
        0,
        0.1081168626077404,
        0.2069715607112789,
        0.1604307090948536,
        0,
        -1.907478928565979,
        0.07097703218460083,
        -3.0654704570770264,
        1
      ],
      "name": "Cylinder010",
      "extras": {
        "name": "Cylinder.010"
      },
      "mesh": 1
    },
    {
      "matrix": [
        0.259207284495619,
        -0.10926597798463743,
        -0.03371999911498508,
        0,
        -0.03724025505934331,
        -0.15965017004537996,
        0.23106158446510527,
        0,
        0.1081168626077404,
        0.2069715607112789,
        0.1604307090948536,
        0,
        -2.215583324432373,
        -1.5780129432678223,
        -1.9377110004425049,
        1
      ],
      "name": "Cube087",
      "extras": {
        "name": "Cube.087"
      },
      "mesh": 2
    },
    {
      "matrix": [
        -0.259207284495619,
        -0.1092659672225832,
        -0.03372005090979543,
        0,
        0.03724020689021809,
        -0.15965031657003995,
        0.23106158587573541,
        0,
        -0.10811688447689802,
        0.20697155930064892,
        0.16043056257020905,
        0,
        1.9188181161880493,
        0.07097703218460083,
        -3.0654704570770264,
        1
      ],
      "name": "Cylinder011",
      "extras": {
        "name": "Cylinder.011"
      },
      "mesh": 3
    },
    {
      "matrix": [
        -0.259207284495619,
        -0.1092659672225832,
        -0.03372005090979543,
        0,
        0.03724020689021809,
        -0.15965031657003995,
        0.23106158587573541,
        0,
        -0.10811688447689802,
        0.20697155930064892,
        0.16043056257020905,
        0,
        2.2269225120544434,
        -1.5780129432678223,
        -1.9377110004425049,
        1
      ],
      "name": "Cube089",
      "extras": {
        "name": "Cube.089"
      },
      "mesh": 4
    },
    {
      "matrix": [
        0.259207284495619,
        -0.10926597798463743,
        -0.03371999911498508,
        0,
        -0.03724025505934331,
        -0.15965017004537996,
        0.23106158446510527,
        0,
        0.1081168626077404,
        0.2069715607112789,
        0.1604307090948536,
        0,
        -2.215583324432373,
        -1.5780129432678223,
        -1.9377110004425049,
        1
      ],
      "name": "Cube088",
      "extras": {
        "name": "Cube.088"
      },
      "mesh": 5
    },
    {
      "matrix": [
        -0.259207284495619,
        -0.1092659672225832,
        -0.03372005090979543,
        0,
        0.03724020689021809,
        -0.15965031657003995,
        0.23106158587573541,
        0,
        -0.10811688447689802,
        0.20697155930064892,
        0.16043056257020905,
        0,
        2.2269225120544434,
        -1.5780129432678223,
        -1.9377110004425049,
        1
      ],
      "name": "Cube090",
      "extras": {
        "name": "Cube.090"
      },
      "mesh": 6
    },
    {
      "matrix": [
        1.2528878450393677,
        0,
        0,
        0,
        0,
        1.2528878450393677,
        0,
        0,
        0,
        0,
        1.2528878450393677,
        0,
        -0.0015209941193461418,
        0.5646407604217529,
        0.8862612247467041,
        1
      ],
      "name": "Cube100",
      "extras": {
        "name": "Cube.100"
      },
      "mesh": 7
    },
    {
      "name": "SaveEarth",
      "children": [
        0,
        1,
        2,
        3,
        4,
        5,
        6,
        7
      ]
    }
  ],
  "bufferViews": [
    {
      "buffer": 0,
      "byteOffset": 0,
      "byteLength": 18456,
      "target": 34962,
      "byteStride": 12
    },
    {
      "buffer": 0,
      "byteOffset": 18456,
      "byteLength": 18456,
      "target": 34962,
      "byteStride": 12
    },
    {
      "buffer": 0,
      "byteOffset": 36912,
      "byteLength": 36864,
      "target": 34963
    },
    {
      "buffer": 0,
      "byteOffset": 73776,
      "byteLength": 29208,
      "target": 34962,
      "byteStride": 12
    },
    {
      "buffer": 0,
      "byteOffset": 102984,
      "byteLength": 29208,
      "target": 34962,
      "byteStride": 12
    },
    {
      "buffer": 0,
      "byteOffset": 132192,
      "byteLength": 58368,
      "target": 34963
    },
    {
      "buffer": 0,
      "byteOffset": 190560,
      "byteLength": 37500,
      "target": 34962,
      "byteStride": 12
    },
    {
      "buffer": 0,
      "byteOffset": 228060,
      "byteLength": 37500,
      "target": 34962,
      "byteStride": 12
    },
    {
      "buffer": 0,
      "byteOffset": 265560,
      "byteLength": 73728,
      "target": 34963
    },
    {
      "buffer": 0,
      "byteOffset": 339288,
      "byteLength": 29208,
      "target": 34962,
      "byteStride": 12
    },
    {
      "buffer": 0,
      "byteOffset": 368496,
      "byteLength": 29208,
      "target": 34962,
      "byteStride": 12
    },
    {
      "buffer": 0,
      "byteOffset": 397704,
      "byteLength": 58368,
      "target": 34963
    },
    {
      "buffer": 0,
      "byteOffset": 456072,
      "byteLength": 37500,
      "target": 34962,
      "byteStride": 12
    },
    {
      "buffer": 0,
      "byteOffset": 493572,
      "byteLength": 37500,
      "target": 34962,
      "byteStride": 12
    },
    {
      "buffer": 0,
      "byteOffset": 531072,
      "byteLength": 73728,
      "target": 34963
    },
    {
      "buffer": 0,
      "byteOffset": 604800,
      "byteLength": 97248,
      "target": 34962,
      "byteStride": 12
    },
    {
      "buffer": 0,
      "byteOffset": 702048,
      "byteLength": 97248,
      "target": 34962,
      "byteStride": 12
    },
    {
      "buffer": 0,
      "byteOffset": 799296,
      "byteLength": 192000,
      "target": 34963
    },
    {
      "buffer": 0,
      "byteOffset": 991296,
      "byteLength": 97248,
      "target": 34962,
      "byteStride": 12
    },
    {
      "buffer": 0,
      "byteOffset": 1088544,
      "byteLength": 97248,
      "target": 34962,
      "byteStride": 12
    },
    {
      "buffer": 0,
      "byteOffset": 1185792,
      "byteLength": 192000,
      "target": 34963
    },
    {
      "buffer": 0,
      "byteOffset": 1377792,
      "byteLength": 153744,
      "target": 34962,
      "byteStride": 12
    },
    {
      "buffer": 0,
      "byteOffset": 1531536,
      "byteLength": 153744,
      "target": 34962,
      "byteStride": 12
    },
    {
      "buffer": 0,
      "byteOffset": 1685280,
      "byteLength": 307200,
      "target": 34963
    }
  ],
  "buffers": [
    {
      "byteLength": 1992480,
      "uri": "data:application/octet-stream;base64,"
    }
  ],
  "accessors": [
    {
      "bufferView": 0,
      "componentType": 5126,
      "count": 1538,
      "max": [
        2.0815465450286865,
        2.0730817317962646,
        2.0793747901916504
      ],
      "min": [
        -2.0815470218658447,
        -2.0737416744232178,
        -2.079651355743408
      ],
      "type": "VEC3"
    },
    {
      "bufferView": 1,
      "componentType": 5126,
      "count": 1538,
      "max": [
        0.9993857741355896,
        0.9976740479469299,
        0.9988017082214355
      ],
      "min": [
        -0.9993857741355896,
        -0.9976740479469299,
        -0.9988017678260803
      ],
      "type": "VEC3"
    },
    {
      "bufferView": 2,
      "componentType": 5125,
      "count": 9216,
      "max": [
        1537
      ],
      "min": [
        0
      ],
      "type": "SCALAR"
    },
    {
      "bufferView": 3,
      "componentType": 5126,
      "count": 2434,
      "max": [
        4.165201663970947,
        2.4290642738342285,
        4.165201663970947
      ],
      "min": [
        -4.165201663970947,
        -1.6486417055130005,
        -4.165201663970947
      ],
      "type": "VEC3"
    },
    {
      "bufferView": 4,
      "componentType": 5126,
      "count": 2434,
      "max": [
        1,
        1,
        1
      ],
      "min": [
        -1,
        -1,
        -1
      ],
      "type": "VEC3"
    },
    {
      "bufferView": 5,
      "componentType": 5125,
      "count": 14592,
      "max": [
        2433
      ],
      "min": [
        0
      ],
      "type": "SCALAR"
    },
    {
      "bufferView": 6,
      "componentType": 5126,
      "count": 3125,
      "max": [
        3.187406063079834,
        -2.4338831901550293,
        6.260376453399658
      ],
      "min": [
        -4.595095157623291,
        -7.159652233123779,
        -1.4803036451339722
      ],
      "type": "VEC3"
    },
    {
      "bufferView": 7,
      "componentType": 5126,
      "count": 3125,
      "max": [
        0.9997357130050659,
        0.9999359846115112,
        0.9999685287475586
      ],
      "min": [
        -0.9996696710586548,
        -0.9999359846115112,
        -0.99942946434021
      ],
      "type": "VEC3"
    },
    {
      "bufferView": 8,
      "componentType": 5125,
      "count": 18432,
      "max": [
        3124
      ],
      "min": [
        0
      ],
      "type": "SCALAR"
    },
    {
      "bufferView": 9,
      "componentType": 5126,
      "count": 2434,
      "max": [
        4.165201663970947,
        2.4290642738342285,
        4.165201663970947
      ],
      "min": [
        -4.165201663970947,
        -1.6486417055130005,
        -4.165201663970947
      ],
      "type": "VEC3"
    },
    {
      "bufferView": 10,
      "componentType": 5126,
      "count": 2434,
      "max": [
        1,
        1,
        1
      ],
      "min": [
        -1,
        -1,
        -1
      ],
      "type": "VEC3"
    },
    {
      "bufferView": 11,
      "componentType": 5125,
      "count": 14592,
      "max": [
        2433
      ],
      "min": [
        0
      ],
      "type": "SCALAR"
    },
    {
      "bufferView": 12,
      "componentType": 5126,
      "count": 3125,
      "max": [
        3.187406063079834,
        -2.4338831901550293,
        6.260376453399658
      ],
      "min": [
        -4.595095157623291,
        -7.159652233123779,
        -1.4803036451339722
      ],
      "type": "VEC3"
    },
    {
      "bufferView": 13,
      "componentType": 5126,
      "count": 3125,
      "max": [
        0.9997357130050659,
        0.9999359846115112,
        0.9999685287475586
      ],
      "min": [
        -0.9996696710586548,
        -0.9999359846115112,
        -0.99942946434021
      ],
      "type": "VEC3"
    },
    {
      "bufferView": 14,
      "componentType": 5125,
      "count": 18432,
      "max": [
        3124
      ],
      "min": [
        0
      ],
      "type": "SCALAR"
    },
    {
      "bufferView": 15,
      "componentType": 5126,
      "count": 8104,
      "max": [
        5.02962064743042,
        12.409318923950195,
        6.331989288330078
      ],
      "min": [
        -7.251160144805908,
        -6.664094924926758,
        -0.8985767960548401
      ],
      "type": "VEC3"
    },
    {
      "bufferView": 16,
      "componentType": 5126,
      "count": 8104,
      "max": [
        1,
        0.9996696710586548,
        0.9998375177383423
      ],
      "min": [
        -1,
        -0.7398936152458191,
        -0.9998720288276672
      ],
      "type": "VEC3"
    },
    {
      "bufferView": 17,
      "componentType": 5125,
      "count": 48000,
      "max": [
        8103
      ],
      "min": [
        0
      ],
      "type": "SCALAR"
    },
    {
      "bufferView": 18,
      "componentType": 5126,
      "count": 8104,
      "max": [
        5.029617786407471,
        12.40931510925293,
        6.331987380981445
      ],
      "min": [
        -7.251161098480225,
        -6.664094924926758,
        -0.8985770344734192
      ],
      "type": "VEC3"
    },
    {
      "bufferView": 19,
      "componentType": 5126,
      "count": 8104,
      "max": [
        1,
        0.9996696710586548,
        0.9998375177383423
      ],
      "min": [
        -1,
        -0.7398936152458191,
        -0.9998720288276672
      ],
      "type": "VEC3"
    },
    {
      "bufferView": 20,
      "componentType": 5125,
      "count": 48000,
      "max": [
        8103
      ],
      "min": [
        0
      ],
      "type": "SCALAR"
    },
    {
      "bufferView": 21,
      "componentType": 5126,
      "count": 12812,
      "max": [
        2.10921311378479,
        2.1119251251220703,
        2.1080636978149414
      ],
      "min": [
        -2.0148541927337646,
        -2.0923609733581543,
        -2.1023926734924316
      ],
      "type": "VEC3"
    },
    {
      "bufferView": 22,
      "componentType": 5126,
      "count": 12812,
      "max": [
        0.9999685287475586,
        0.9999685287475586,
        0.9999685287475586
      ],
      "min": [
        -0.9998720288276672,
        -0.9995635747909546,
        -0.9999359846115112
      ],
      "type": "VEC3"
    },
    {
      "bufferView": 23,
      "componentType": 5125,
      "count": 76800,
      "max": [
        12811
      ],
      "min": [
        0
      ],
      "type": "SCALAR"
    }
  ],
  "materials": [
    {
      "pbrMetallicRoughness": {
        "baseColorFactor": [
          0.07421356837213867,
          0.22322795730611386,
          1,
          1
        ],
        "metallicFactor": 0,
        "roughnessFactor": 0.5
      },
      "doubleSided": true,
      "name": "BLUE"
    },
    {
      "pbrMetallicRoughness": {
        "baseColorFactor": [
          0.1456761211156845,
          0.4446675479412079,
          0.02755669690668583,
          1
        ],
        "metallicFactor": 0,
        "roughnessFactor": 0.5
      },
      "doubleSided": true,
      "name": "GREEN"
    },
    {
      "pbrMetallicRoughness": {
        "metallicFactor": 0,
        "roughnessFactor": 0.5
      },
      "doubleSided": true,
      "name": "WHITE.001"
    },
    {
      "pbrMetallicRoughness": {
        "baseColorFactor": [
          0.1456761211156845,
          0.4446675479412079,
          0.02755669690668583,
          1
        ],
        "metallicFactor": 0,
        "roughnessFactor": 0.5
      },
      "doubleSided": true,
      "name": "GREEN"
    },
    {
      "pbrMetallicRoughness": {
        "metallicFactor": 0,
        "roughnessFactor": 0.5
      },
      "doubleSided": true,
      "name": "WHITE.001"
    },
    {
      "pbrMetallicRoughness": {
        "baseColorFactor": [
          1,
          0.36465880274772644,
          0.28578174114227295,
          1
        ],
        "metallicFactor": 0,
        "roughnessFactor": 0.5
      },
      "doubleSided": true,
      "name": "skin"
    },
    {
      "pbrMetallicRoughness": {
        "baseColorFactor": [
          1,
          0.36465880274772644,
          0.28578174114227295,
          1
        ],
        "metallicFactor": 0,
        "roughnessFactor": 0.5
      },
      "doubleSided": true,
      "name": "skin"
    },
    {
      "pbrMetallicRoughness": {
        "baseColorFactor": [
          0.1456761211156845,
          0.4446675479412079,
          0.02755669690668583,
          1
        ],
        "metallicFactor": 0,
        "roughnessFactor": 0.5
      },
      "doubleSided": true,
      "name": "GREEN"
    }
  ],
  "meshes": [
    {
      "primitives": [
        {
          "mode": 4,
          "attributes": {
            "POSITION": 0,
            "NORMAL": 1
          },
          "indices": 2,
          "material": 0
        }
      ]
    },
    {
      "primitives": [
        {
          "mode": 4,
          "attributes": {
            "POSITION": 3,
            "NORMAL": 4
          },
          "indices": 5,
          "material": 1
        }
      ]
    },
    {
      "primitives": [
        {
          "mode": 4,
          "attributes": {
            "POSITION": 6,
            "NORMAL": 7
          },
          "indices": 8,
          "material": 2
        }
      ]
    },
    {
      "primitives": [
        {
          "mode": 4,
          "attributes": {
            "POSITION": 9,
            "NORMAL": 10
          },
          "indices": 11,
          "material": 3
        }
      ]
    },
    {
      "primitives": [
        {
          "mode": 4,
          "attributes": {
            "POSITION": 12,
            "NORMAL": 13
          },
          "indices": 14,
          "material": 4
        }
      ]
    },
    {
      "primitives": [
        {
          "mode": 4,
          "attributes": {
            "POSITION": 15,
            "NORMAL": 16
          },
          "indices": 17,
          "material": 5
        }
      ]
    },
    {
      "primitives": [
        {
          "mode": 4,
          "attributes": {
            "POSITION": 18,
            "NORMAL": 19
          },
          "indices": 20,
          "material": 6
        }
      ]
    },
    {
      "primitives": [
        {
          "mode": 4,
          "attributes": {
            "POSITION": 21,
            "NORMAL": 22
          },
          "indices": 23,
          "material": 7
        }
      ]
    }
  ]
}